<svg xmlns="http://www.w3.org/2000/svg" xmlns:xlink="http://www.w3.org/1999/xlink" width="300" zoomAndPan="magnify" viewBox="0 0 224.87999 112.499997" height="150" preserveAspectRatio="xMidYMid meet" version="1.0"><defs><g/><clipPath id="d8e111102a"><rect x="0" width="194" y="0" height="79"/></clipPath></defs><g transform="matrix(1, 0, 0, 1, 21, 19)"><g clip-path="url(#d8e111102a)"><g fill="#000000" fill-opacity="1"><g transform="translate(0.362594, 56.133484)"><g><path d="M 24.96875 -35.234375 C 24.863281 -35.648438 24.765625 -36.015625 24.671875 -36.328125 C 24.796875 -37.023438 24.925781 -37.703125 25.0625 -38.359375 C 25.207031 -39.023438 25.332031 -39.707031 25.4375 -40.40625 C 25.675781 -41.445312 25.96875 -42.28125 26.3125 -42.90625 C 26.664062 -43.53125 27.046875 -43.929688 27.453125 -44.109375 L 29.78125 -45.078125 C 30.039062 -45.171875 30.410156 -45.289062 30.890625 -45.4375 C 31.160156 -45.4375 31.351562 -45.316406 31.46875 -45.078125 C 31.59375 -44.835938 31.65625 -44.488281 31.65625 -44.03125 C 31.65625 -43.863281 31.59375 -43.378906 31.46875 -42.578125 C 31.351562 -41.785156 31.1875 -40.664062 30.96875 -39.21875 C 30.914062 -38.882812 30.867188 -38.535156 30.828125 -38.171875 C 30.796875 -37.804688 30.742188 -37.441406 30.671875 -37.078125 C 30.671875 -36.835938 30.585938 -36.554688 30.421875 -36.234375 C 30.253906 -35.910156 30.039062 -35.53125 29.78125 -35.09375 C 29.894531 -34.613281 29.628906 -33.441406 28.984375 -31.578125 C 28.347656 -29.722656 27.359375 -27.21875 26.015625 -24.0625 C 24.878906 -21.425781 23.875 -19.117188 23 -17.140625 C 22.132812 -15.171875 21.378906 -13.546875 20.734375 -12.265625 C 20.390625 -11.585938 20 -10.859375 19.5625 -10.078125 C 19.132812 -9.296875 18.691406 -8.484375 18.234375 -7.640625 C 18.453125 -7.128906 18.65625 -6.671875 18.84375 -6.265625 C 18.820312 -5.921875 18.773438 -5.675781 18.703125 -5.53125 C 18.367188 -5.144531 17.945312 -4.648438 17.4375 -4.046875 C 16.925781 -3.441406 16.335938 -2.769531 15.671875 -2.03125 C 15.210938 -1.8125 14.71875 -1.566406 14.1875 -1.296875 C 13.820312 -0.816406 13.519531 -0.394531 13.28125 -0.03125 C 12.820312 0.226562 12.390625 0.425781 11.984375 0.5625 C 11.585938 0.695312 11.222656 0.765625 10.890625 0.765625 C 10.285156 0.765625 9.722656 0.472656 9.203125 -0.109375 C 8.679688 -0.691406 8.421875 -1.28125 8.421875 -1.875 C 8.421875 -2.289062 8.695312 -2.800781 9.25 -3.40625 C 9.8125 -4.007812 10.128906 -4.40625 10.203125 -4.59375 L 10.09375 -4.953125 L 9.734375 -5.421875 C 9.640625 -6.023438 9.503906 -6.570312 9.328125 -7.0625 C 9.160156 -7.5625 8.957031 -8.039062 8.71875 -8.5 C 8.28125 -9.226562 7.894531 -10.113281 7.5625 -11.15625 C 7.226562 -12.207031 6.914062 -13.410156 6.625 -14.765625 C 6.5 -15.390625 6.40625 -15.890625 6.34375 -16.265625 C 6.289062 -16.640625 6.265625 -16.882812 6.265625 -17 C 6.160156 -17.164062 6.046875 -17.40625 5.921875 -17.71875 C 5.804688 -18.039062 5.675781 -18.40625 5.53125 -18.8125 C 5.414062 -19.601562 5.265625 -20.601562 5.078125 -21.8125 C 4.898438 -23.019531 4.710938 -24.429688 4.515625 -26.046875 C 4.515625 -26.242188 4.484375 -26.472656 4.421875 -26.734375 C 4.367188 -27.003906 4.28125 -27.332031 4.15625 -27.71875 C 4.007812 -28.070312 3.910156 -28.378906 3.859375 -28.640625 C 3.816406 -28.910156 3.796875 -29.15625 3.796875 -29.375 C 3.816406 -30.070312 3.828125 -30.757812 3.828125 -31.4375 C 3.691406 -31.96875 3.644531 -32.28125 3.6875 -32.375 L 3.984375 -33.796875 C 3.742188 -34.128906 3.539062 -34.535156 3.375 -35.015625 C 3.21875 -35.503906 3.140625 -36.070312 3.140625 -36.71875 C 3.140625 -36.957031 3.175781 -37.1875 3.25 -37.40625 C 3.320312 -37.625 3.410156 -37.832031 3.515625 -38.03125 C 3.390625 -38.414062 3.289062 -38.804688 3.21875 -39.203125 C 3.144531 -39.597656 3.109375 -40.023438 3.109375 -40.484375 C 2.867188 -40.847656 2.691406 -41.203125 2.578125 -41.546875 C 2.472656 -41.898438 2.457031 -42.207031 2.53125 -42.46875 L 2.75 -43.921875 C 2.65625 -44.285156 2.570312 -44.585938 2.5 -44.828125 C 2.757812 -46.273438 2.984375 -47.429688 3.171875 -48.296875 C 3.367188 -49.160156 3.519531 -49.71875 3.625 -49.96875 C 3.976562 -50.8125 4.488281 -51.488281 5.15625 -52 C 5.820312 -52.519531 6.648438 -52.878906 7.640625 -53.078125 C 7.972656 -53.316406 8.265625 -53.507812 8.515625 -53.65625 C 8.773438 -53.800781 9.007812 -53.875 9.21875 -53.875 C 9.488281 -53.875 9.738281 -53.742188 9.96875 -53.484375 C 10.195312 -53.234375 10.382812 -52.867188 10.53125 -52.390625 C 10.644531 -51.972656 10.71875 -51.570312 10.75 -51.1875 C 10.789062 -50.800781 10.800781 -50.453125 10.78125 -50.140625 C 10.6875 -49.253906 10.585938 -48.226562 10.484375 -47.0625 C 10.390625 -45.90625 10.320312 -44.617188 10.28125 -43.203125 C 10.226562 -43.023438 10.117188 -42.75 9.953125 -42.375 C 9.785156 -42.007812 9.703125 -41.71875 9.703125 -41.5 C 9.703125 -41.257812 9.785156 -40.875 9.953125 -40.34375 C 10.117188 -39.8125 10.203125 -39.425781 10.203125 -39.1875 C 10.203125 -39.039062 10.175781 -38.773438 10.125 -38.390625 C 10.082031 -38.003906 10.007812 -37.265625 9.90625 -36.171875 C 10.007812 -35.617188 10.132812 -35.039062 10.28125 -34.4375 C 10.28125 -34.175781 10.242188 -33.742188 10.171875 -33.140625 C 10.097656 -32.535156 10.0625 -32.085938 10.0625 -31.796875 C 10.0625 -31.628906 10.082031 -31.503906 10.125 -31.421875 C 10.175781 -31.335938 10.273438 -31.003906 10.421875 -30.421875 C 10.441406 -29.890625 10.492188 -29.28125 10.578125 -28.59375 C 10.660156 -27.90625 10.765625 -27.09375 10.890625 -26.15625 C 11.015625 -25.332031 11.164062 -24.304688 11.34375 -23.078125 C 11.519531 -21.847656 11.691406 -20.425781 11.859375 -18.8125 L 11.90625 -17.625 C 11.90625 -17.445312 11.953125 -17.242188 12.046875 -17.015625 C 12.140625 -16.785156 12.285156 -16.550781 12.484375 -16.3125 C 12.628906 -15.664062 12.785156 -14.96875 12.953125 -14.21875 C 13.117188 -13.46875 13.285156 -12.695312 13.453125 -11.90625 C 13.503906 -11.632812 13.585938 -11.425781 13.703125 -11.28125 C 13.828125 -11.144531 13.960938 -11.078125 14.109375 -11.078125 C 14.640625 -11.597656 15.0625 -12.140625 15.375 -12.703125 C 15.59375 -12.960938 15.875 -13.445312 16.21875 -14.15625 C 16.570312 -14.875 16.988281 -15.835938 17.46875 -17.046875 C 17.59375 -17.359375 17.773438 -17.726562 18.015625 -18.15625 C 18.253906 -18.59375 18.53125 -19.085938 18.84375 -19.640625 C 19.15625 -20.128906 19.585938 -21.007812 20.140625 -22.28125 C 20.703125 -23.5625 21.378906 -25.25 22.171875 -27.34375 C 22.828125 -29.082031 23.378906 -30.554688 23.828125 -31.765625 C 24.273438 -32.972656 24.59375 -33.898438 24.78125 -34.546875 Z M 24.96875 -35.234375 "/></g></g><g transform="translate(31.512736, 56.133484)"><g><path d="M -1.296875 -10.78125 C -1.015625 -11.289062 -0.644531 -11.800781 -0.1875 -12.3125 C 0.269531 -12.832031 0.851562 -13.367188 1.5625 -13.921875 C 1.632812 -14.410156 1.703125 -14.890625 1.765625 -15.359375 C 1.835938 -15.828125 1.890625 -16.300781 1.921875 -16.78125 C 1.992188 -17.125 2.109375 -17.523438 2.265625 -17.984375 C 2.421875 -18.441406 2.59375 -18.9375 2.78125 -19.46875 C 3 -20 3.296875 -20.660156 3.671875 -21.453125 C 4.046875 -22.242188 4.535156 -23.132812 5.140625 -24.125 C 5.640625 -24.6875 6.164062 -25.296875 6.71875 -25.953125 C 7.28125 -26.617188 7.835938 -27.289062 8.390625 -27.96875 C 8.660156 -28.1875 8.953125 -28.390625 9.265625 -28.578125 C 9.578125 -28.773438 9.890625 -28.992188 10.203125 -29.234375 C 10.492188 -29.328125 10.816406 -29.410156 11.171875 -29.484375 C 11.535156 -29.554688 11.9375 -29.59375 12.375 -29.59375 C 12.976562 -29.59375 13.46875 -29.53125 13.84375 -29.40625 C 14.21875 -29.289062 14.523438 -29.085938 14.765625 -28.796875 C 14.929688 -28.609375 15.09375 -28.316406 15.25 -27.921875 C 15.40625 -27.535156 15.554688 -27.066406 15.703125 -26.515625 C 15.773438 -26.035156 15.859375 -25.503906 15.953125 -24.921875 C 15.953125 -25.066406 15.910156 -25.003906 15.828125 -24.734375 C 15.742188 -24.472656 15.617188 -24.054688 15.453125 -23.484375 L 15.125 -22.328125 C 14.78125 -21.160156 14.019531 -19.816406 12.84375 -18.296875 C 11.664062 -16.785156 10.070312 -15.050781 8.0625 -13.09375 C 7.894531 -12.925781 7.75 -12.710938 7.625 -12.453125 C 7.507812 -12.203125 7.453125 -11.9375 7.453125 -11.65625 C 7.453125 -11.144531 7.539062 -10.695312 7.71875 -10.3125 C 7.90625 -9.925781 8.164062 -9.632812 8.5 -9.4375 C 8.695312 -9.289062 9.003906 -9.144531 9.421875 -9 C 9.847656 -8.863281 10.347656 -8.734375 10.921875 -8.609375 C 11.867188 -8.679688 12.726562 -8.835938 13.5 -9.078125 C 14.269531 -9.316406 14.957031 -9.609375 15.5625 -9.953125 C 15.675781 -10.023438 15.863281 -10.125 16.125 -10.25 C 16.394531 -10.382812 16.664062 -10.5625 16.9375 -10.78125 C 17.25 -10.082031 17.523438 -9.453125 17.765625 -8.890625 C 18.003906 -8.335938 18.195312 -7.859375 18.34375 -7.453125 C 16.96875 -6.097656 15.71875 -5.078125 14.59375 -4.390625 C 13.476562 -3.703125 12.445312 -3.359375 11.5 -3.359375 C 11.113281 -3.117188 10.671875 -2.941406 10.171875 -2.828125 C 9.679688 -2.722656 9.097656 -2.671875 8.421875 -2.671875 C 7.535156 -2.671875 6.75 -2.800781 6.0625 -3.0625 C 5.375 -3.332031 4.800781 -3.722656 4.34375 -4.234375 C 4.101562 -4.472656 3.859375 -4.828125 3.609375 -5.296875 C 3.367188 -5.765625 3.117188 -6.328125 2.859375 -6.984375 C 2.640625 -7.515625 2.429688 -7.90625 2.234375 -8.15625 C 2.046875 -8.40625 1.832031 -8.53125 1.59375 -8.53125 C 1.394531 -8.53125 1.175781 -8.441406 0.9375 -8.265625 C 0.695312 -8.085938 0.429688 -7.816406 0.140625 -7.453125 C 0.046875 -7.816406 -0.117188 -8.265625 -0.359375 -8.796875 C -0.597656 -9.328125 -0.910156 -9.988281 -1.296875 -10.78125 Z M 10.28125 -22.546875 C 9.75 -22.546875 9.035156 -21.847656 8.140625 -20.453125 C 7.242188 -19.066406 6.796875 -18.050781 6.796875 -17.40625 C 6.796875 -17.257812 6.828125 -17.15625 6.890625 -17.09375 C 6.953125 -17.03125 7.078125 -17 7.265625 -17 C 7.535156 -17 7.753906 -17.140625 7.921875 -17.421875 C 8.085938 -17.703125 8.242188 -17.960938 8.390625 -18.203125 C 8.660156 -18.441406 8.921875 -18.695312 9.171875 -18.96875 C 9.421875 -19.25 9.664062 -19.523438 9.90625 -19.796875 C 10.195312 -20.128906 10.414062 -20.460938 10.5625 -20.796875 C 10.707031 -21.140625 10.78125 -21.476562 10.78125 -21.8125 C 10.78125 -22.03125 10.738281 -22.207031 10.65625 -22.34375 C 10.570312 -22.476562 10.445312 -22.546875 10.28125 -22.546875 Z M 10.28125 -22.546875 "/></g></g><g transform="translate(49.710786, 56.133484)"><g><path d="M -1.296875 -10.78125 C -1.085938 -11.019531 -0.875 -11.3125 -0.65625 -11.65625 C -0.4375 -12.007812 -0.144531 -12.394531 0.21875 -12.8125 L 2.609375 -14.90625 C 2.703125 -14.976562 2.753906 -15.070312 2.765625 -15.1875 C 2.773438 -15.3125 2.78125 -15.484375 2.78125 -15.703125 C 2.757812 -16.015625 2.722656 -16.269531 2.671875 -16.46875 C 2.671875 -17.019531 2.78125 -17.945312 3 -19.25 C 3.21875 -20.550781 3.410156 -21.332031 3.578125 -21.59375 L 3.359375 -22.28125 C 3.671875 -23.894531 4.109375 -25.660156 4.671875 -27.578125 C 5.242188 -29.503906 5.894531 -31.585938 6.625 -33.828125 C 6.863281 -34.210938 7.113281 -34.695312 7.375 -35.28125 C 7.644531 -35.875 7.945312 -36.546875 8.28125 -37.296875 C 8.695312 -38.554688 9.238281 -39.875 9.90625 -41.25 C 10.582031 -42.625 11.34375 -44.03125 12.1875 -45.46875 C 13.320312 -47.375 14.328125 -48.8125 15.203125 -49.78125 C 16.085938 -50.75 16.878906 -51.234375 17.578125 -51.234375 C 18.984375 -51.234375 19.941406 -50.957031 20.453125 -50.40625 C 20.972656 -49.863281 21.234375 -48.847656 21.234375 -47.359375 C 21.234375 -46.972656 21.164062 -46.375 21.03125 -45.5625 C 20.90625 -44.757812 20.84375 -44.148438 20.84375 -43.734375 C 20.84375 -43.328125 20.707031 -42.75 20.4375 -42 C 20.175781 -41.25 20.046875 -40.5625 20.046875 -39.9375 C 20.015625 -39.75 19.953125 -39.554688 19.859375 -39.359375 L 19.890625 -38.859375 C 19.796875 -38.515625 19.648438 -38.101562 19.453125 -37.625 C 19.265625 -37.144531 19.015625 -36.566406 18.703125 -35.890625 C 18.535156 -35.285156 18.316406 -34.582031 18.046875 -33.78125 C 17.785156 -32.988281 17.472656 -32.125 17.109375 -31.1875 C 16.960938 -30.945312 16.773438 -30.648438 16.546875 -30.296875 C 16.316406 -29.953125 16.070312 -29.5625 15.8125 -29.125 C 15.738281 -28.8125 15.613281 -28.445312 15.4375 -28.03125 C 15.269531 -27.625 15.046875 -27.144531 14.765625 -26.59375 C 14.617188 -26.300781 14.421875 -25.984375 14.171875 -25.640625 C 13.929688 -25.304688 13.644531 -24.875 13.3125 -24.34375 C 13.164062 -24.101562 13.007812 -23.800781 12.84375 -23.4375 C 12.675781 -23.082031 12.484375 -22.675781 12.265625 -22.21875 C 11.992188 -21.800781 11.640625 -21.289062 11.203125 -20.6875 C 10.773438 -20.09375 10.285156 -19.382812 9.734375 -18.5625 C 8.984375 -17.226562 8.210938 -15.960938 7.421875 -14.765625 C 7.421875 -12.421875 7.882812 -10.648438 8.8125 -9.453125 C 9.738281 -8.265625 11.128906 -7.671875 12.984375 -7.671875 C 13.109375 -7.671875 13.472656 -7.753906 14.078125 -7.921875 C 14.679688 -8.085938 15.507812 -8.351562 16.5625 -8.71875 C 16.882812 -8.914062 17.257812 -9.1875 17.6875 -9.53125 C 18.125 -9.882812 18.617188 -10.300781 19.171875 -10.78125 L 20.578125 -7.453125 C 19.953125 -6.898438 19.328125 -6.332031 18.703125 -5.75 C 18.078125 -5.175781 17.4375 -4.609375 16.78125 -4.046875 C 16.039062 -3.421875 15.28125 -2.945312 14.5 -2.625 C 13.726562 -2.300781 12.972656 -2.140625 12.234375 -2.140625 C 11.847656 -2.140625 11.253906 -2.179688 10.453125 -2.265625 C 9.660156 -2.347656 9.054688 -2.390625 8.640625 -2.390625 C 7.296875 -2.390625 6.179688 -2.929688 5.296875 -4.015625 C 4.421875 -5.097656 3.800781 -6.726562 3.4375 -8.90625 C 3.382812 -9.113281 3.316406 -9.300781 3.234375 -9.46875 C 3.148438 -9.644531 3 -9.84375 2.78125 -10.0625 C 2.46875 -9.75 2.097656 -9.375 1.671875 -8.9375 C 1.253906 -8.5 0.742188 -8.003906 0.140625 -7.453125 Z M 15.953125 -39.1875 L 15.703125 -39.328125 C 14.347656 -38.023438 13.328125 -36.796875 12.640625 -35.640625 C 11.953125 -34.484375 11.609375 -33.359375 11.609375 -32.265625 C 11.609375 -32.097656 11.53125 -31.816406 11.375 -31.421875 C 11.21875 -31.023438 10.984375 -30.515625 10.671875 -29.890625 C 10.285156 -29.140625 9.890625 -28.316406 9.484375 -27.421875 C 9.023438 -26.066406 8.671875 -24.96875 8.421875 -24.125 C 8.179688 -23.28125 8.0625 -22.679688 8.0625 -22.328125 L 8.28125 -22.03125 C 8.5 -22.050781 8.765625 -22.265625 9.078125 -22.671875 C 9.390625 -23.085938 9.753906 -23.695312 10.171875 -24.5 C 10.359375 -24.925781 10.632812 -25.425781 11 -26 C 11.363281 -26.582031 11.773438 -27.273438 12.234375 -28.078125 C 12.617188 -28.609375 13.234375 -29.96875 14.078125 -32.15625 C 14.921875 -34.351562 15.378906 -35.753906 15.453125 -36.359375 C 15.472656 -36.835938 15.535156 -37.3125 15.640625 -37.78125 C 15.753906 -38.257812 15.859375 -38.726562 15.953125 -39.1875 Z M 15.953125 -39.1875 "/></g></g><g transform="translate(70.115757, 56.133484)"><g><path d="M -1.296875 -10.78125 C -1.128906 -10.945312 -0.953125 -11.164062 -0.765625 -11.4375 C -0.585938 -11.71875 -0.378906 -12.03125 -0.140625 -12.375 L 2.640625 -14.296875 C 2.972656 -14.703125 3.488281 -15.222656 4.1875 -15.859375 C 4.894531 -16.503906 5.765625 -17.285156 6.796875 -18.203125 C 6.921875 -18.460938 7.117188 -18.765625 7.390625 -19.109375 C 7.671875 -19.460938 8.003906 -19.8125 8.390625 -20.15625 C 8.734375 -20.46875 9.070312 -20.757812 9.40625 -21.03125 C 9.738281 -21.3125 10.050781 -21.585938 10.34375 -21.859375 C 10.707031 -22.210938 11.050781 -22.570312 11.375 -22.9375 C 11.695312 -23.300781 12.03125 -23.648438 12.375 -23.984375 C 12.757812 -24.328125 13.15625 -24.59375 13.5625 -24.78125 C 13.976562 -24.976562 14.425781 -25.078125 14.90625 -25.078125 C 15.4375 -25.078125 15.835938 -25.007812 16.109375 -24.875 C 16.390625 -24.738281 16.539062 -24.550781 16.5625 -24.3125 C 16.320312 -23.757812 16.070312 -23.203125 15.8125 -22.640625 L 16.03125 -22.328125 C 17.09375 -22.734375 17.921875 -23.03125 18.515625 -23.21875 C 19.117188 -23.414062 19.507812 -23.515625 19.6875 -23.515625 C 21.445312 -23.515625 22.765625 -22.976562 23.640625 -21.90625 C 24.523438 -20.832031 24.96875 -19.210938 24.96875 -17.046875 C 24.96875 -16.628906 24.914062 -16.144531 24.8125 -15.59375 C 24.71875 -15.039062 24.5625 -14.4375 24.34375 -13.78125 C 24.101562 -13.0625 23.84375 -12.457031 23.5625 -11.96875 C 23.289062 -11.488281 23.035156 -11.140625 22.796875 -10.921875 C 22.890625 -10.609375 22.992188 -10.382812 23.109375 -10.25 C 23.234375 -10.125 23.394531 -10.0625 23.59375 -10.0625 C 23.78125 -10.0625 23.976562 -10.117188 24.1875 -10.234375 C 24.394531 -10.359375 24.640625 -10.539062 24.921875 -10.78125 C 25.160156 -10.25 25.394531 -9.695312 25.625 -9.125 C 25.851562 -8.5625 26.09375 -8.003906 26.34375 -7.453125 C 25.90625 -7.066406 25.476562 -6.691406 25.0625 -6.328125 C 24.65625 -5.960938 24.222656 -5.613281 23.765625 -5.28125 C 23.210938 -4.820312 22.6875 -4.488281 22.1875 -4.28125 C 21.695312 -4.082031 21.210938 -3.984375 20.734375 -3.984375 C 20.171875 -3.984375 19.707031 -4.113281 19.34375 -4.375 C 18.988281 -4.644531 18.703125 -5.019531 18.484375 -5.5 C 17.878906 -4.707031 17.148438 -3.976562 16.296875 -3.3125 C 15.441406 -2.644531 14.492188 -2.097656 13.453125 -1.671875 C 12.847656 -1.378906 12.300781 -1.15625 11.8125 -1 C 11.320312 -0.84375 10.867188 -0.765625 10.453125 -0.765625 C 10.335938 -0.765625 10.101562 -0.710938 9.75 -0.609375 C 9.394531 -0.515625 9.113281 -0.46875 8.90625 -0.46875 C 7.53125 -0.46875 6.285156 -1.046875 5.171875 -2.203125 C 4.066406 -3.359375 3.515625 -4.648438 3.515625 -6.078125 C 3.515625 -6.660156 3.644531 -7.425781 3.90625 -8.375 C 4.175781 -9.320312 4.3125 -9.882812 4.3125 -10.0625 C 4.3125 -10.226562 4.253906 -10.363281 4.140625 -10.46875 C 4.035156 -10.582031 3.882812 -10.640625 3.6875 -10.640625 C 3.570312 -10.640625 3.285156 -10.457031 2.828125 -10.09375 C 2.367188 -9.726562 1.71875 -9.207031 0.875 -8.53125 C 0.800781 -8.4375 0.710938 -8.289062 0.609375 -8.09375 C 0.515625 -7.90625 0.359375 -7.691406 0.140625 -7.453125 C -0.046875 -8.003906 -0.257812 -8.5625 -0.5 -9.125 C -0.75 -9.695312 -1.015625 -10.25 -1.296875 -10.78125 Z M 16.09375 -17.40625 C 15.976562 -17.375 15.804688 -17.242188 15.578125 -17.015625 C 15.347656 -16.785156 15.125 -16.503906 14.90625 -16.171875 C 14.570312 -15.617188 14.1875 -15.015625 13.75 -14.359375 C 13.476562 -14.066406 13.191406 -13.84375 12.890625 -13.6875 C 12.597656 -13.53125 12.253906 -13.414062 11.859375 -13.34375 C 11.617188 -13.320312 11.363281 -13.085938 11.09375 -12.640625 C 10.832031 -12.191406 10.570312 -11.546875 10.3125 -10.703125 C 10.039062 -9.960938 9.84375 -9.328125 9.71875 -8.796875 C 9.601562 -8.265625 9.546875 -7.816406 9.546875 -7.453125 C 9.546875 -6.773438 9.710938 -6.265625 10.046875 -5.921875 C 10.390625 -5.585938 10.910156 -5.421875 11.609375 -5.421875 C 12.722656 -5.421875 13.742188 -5.726562 14.671875 -6.34375 C 15.597656 -6.957031 16.472656 -7.878906 17.296875 -9.109375 C 17.679688 -9.566406 18.039062 -10.003906 18.375 -10.421875 C 18.570312 -10.566406 18.726562 -10.800781 18.84375 -11.125 C 18.96875 -11.445312 19.085938 -11.851562 19.203125 -12.34375 L 19.859375 -14.40625 C 19.640625 -15.125 19.429688 -15.691406 19.234375 -16.109375 C 19.046875 -16.535156 18.859375 -16.796875 18.671875 -16.890625 C 18.546875 -16.960938 18.273438 -17.039062 17.859375 -17.125 C 17.453125 -17.207031 16.863281 -17.300781 16.09375 -17.40625 Z M 16.09375 -17.40625 "/></g></g><g transform="translate(96.273192, 56.133484)"><g><path d="M -1.296875 -10.78125 L -0.984375 -11.078125 C -0.953125 -11.335938 -0.78125 -11.644531 -0.46875 -12 C -0.15625 -12.363281 0.289062 -12.789062 0.875 -13.28125 C 1.226562 -13.539062 1.601562 -13.789062 2 -14.03125 C 2.40625 -14.28125 2.785156 -14.546875 3.140625 -14.828125 C 4.660156 -16.128906 6.132812 -17.382812 7.5625 -18.59375 C 8.382812 -19.320312 9.203125 -19.941406 10.015625 -20.453125 C 10.835938 -20.972656 11.613281 -21.390625 12.34375 -21.703125 C 12.84375 -22.359375 13.785156 -23.019531 15.171875 -23.6875 C 16.554688 -24.363281 17.6875 -24.703125 18.5625 -24.703125 C 18.894531 -24.703125 19.164062 -24.601562 19.375 -24.40625 C 19.582031 -24.21875 19.707031 -23.984375 19.75 -23.703125 L 19.75 -21.703125 C 19.75 -21.003906 19.550781 -20.382812 19.15625 -19.84375 C 18.757812 -19.300781 18.160156 -18.800781 17.359375 -18.34375 C 16.828125 -18.101562 16.296875 -17.835938 15.765625 -17.546875 C 15.242188 -17.253906 14.71875 -16.988281 14.1875 -16.75 C 13.988281 -16.507812 13.472656 -16.054688 12.640625 -15.390625 C 11.804688 -14.734375 10.679688 -13.847656 9.265625 -12.734375 C 8.609375 -12.222656 8.0625 -11.769531 7.625 -11.375 C 7.195312 -10.976562 6.898438 -10.660156 6.734375 -10.421875 C 6.492188 -9.960938 6.304688 -9.453125 6.171875 -8.890625 C 6.035156 -8.335938 5.96875 -7.703125 5.96875 -6.984375 C 5.96875 -6.429688 6.050781 -5.953125 6.21875 -5.546875 C 6.382812 -5.148438 6.640625 -4.832031 6.984375 -4.59375 C 7.222656 -4.425781 7.550781 -4.253906 7.96875 -4.078125 C 8.394531 -3.910156 8.921875 -3.742188 9.546875 -3.578125 C 9.910156 -3.722656 10.382812 -3.863281 10.96875 -4 C 11.5625 -4.132812 12.222656 -4.304688 12.953125 -4.515625 C 13.773438 -5.003906 14.613281 -5.515625 15.46875 -6.046875 C 16.320312 -6.578125 17.171875 -7.117188 18.015625 -7.671875 C 18.140625 -7.742188 18.289062 -7.820312 18.46875 -7.90625 C 18.644531 -7.988281 18.832031 -8.113281 19.03125 -8.28125 C 19.269531 -8.59375 19.597656 -8.953125 20.015625 -9.359375 C 20.441406 -9.773438 20.957031 -10.25 21.5625 -10.78125 C 22.53125 -8.6875 23.015625 -7.578125 23.015625 -7.453125 C 22.117188 -6.734375 21.210938 -5.992188 20.296875 -5.234375 C 19.378906 -4.472656 18.332031 -3.847656 17.15625 -3.359375 C 16.757812 -3.046875 16.429688 -2.757812 16.171875 -2.5 C 14.960938 -1.289062 13.554688 -0.378906 11.953125 0.234375 C 10.347656 0.847656 8.519531 1.15625 6.46875 1.15625 C 6.007812 1.15625 5.597656 1.117188 5.234375 1.046875 C 4.878906 0.972656 4.582031 0.878906 4.34375 0.765625 C 3.613281 0.273438 3 -0.144531 2.5 -0.5 C 1.96875 -0.882812 1.519531 -1.253906 1.15625 -1.609375 C 0.789062 -1.960938 0.523438 -2.296875 0.359375 -2.609375 C 0.140625 -2.941406 -0.0078125 -3.347656 -0.09375 -3.828125 C -0.175781 -4.316406 -0.21875 -4.910156 -0.21875 -5.609375 C -0.21875 -5.796875 -0.15625 -6.109375 -0.03125 -6.546875 C 0.0820312 -6.984375 0.140625 -7.285156 0.140625 -7.453125 C -0.0234375 -7.984375 -0.226562 -8.523438 -0.46875 -9.078125 C -0.707031 -9.628906 -0.984375 -10.195312 -1.296875 -10.78125 Z M -1.296875 -10.78125 "/></g></g><g transform="translate(119.102158, 56.133484)"><g><path d="M -1.296875 -10.78125 L -1.078125 -11.03125 L -0.984375 -11.390625 C -0.328125 -12.285156 0.816406 -13.453125 2.453125 -14.890625 C 4.097656 -16.328125 5.234375 -17.488281 5.859375 -18.375 C 6.097656 -18.757812 6.375 -19.035156 6.6875 -19.203125 C 7 -19.378906 7.316406 -19.46875 7.640625 -19.46875 C 8.484375 -19.46875 9.191406 -19.253906 9.765625 -18.828125 C 10.347656 -18.410156 10.734375 -17.78125 10.921875 -16.9375 C 11.085938 -16.1875 11.242188 -15.429688 11.390625 -14.671875 C 11.535156 -13.910156 11.660156 -13.144531 11.765625 -12.375 C 11.929688 -11.894531 12.132812 -11.164062 12.375 -10.1875 C 12.613281 -9.207031 12.796875 -8.644531 12.921875 -8.5 C 13.035156 -8.257812 13.210938 -8.082031 13.453125 -7.96875 C 13.691406 -7.863281 13.992188 -7.8125 14.359375 -7.8125 C 14.796875 -7.8125 15.242188 -7.890625 15.703125 -8.046875 C 16.160156 -8.203125 16.628906 -8.472656 17.109375 -8.859375 C 17.472656 -9.171875 17.851562 -9.488281 18.25 -9.8125 C 18.644531 -10.144531 19.035156 -10.46875 19.421875 -10.78125 L 20.875 -7.453125 C 20.488281 -7.066406 19.972656 -6.625 19.328125 -6.125 C 18.691406 -5.632812 17.929688 -5.0625 17.046875 -4.40625 C 16.054688 -3.6875 15.207031 -3.148438 14.5 -2.796875 C 13.800781 -2.453125 13.273438 -2.28125 12.921875 -2.28125 C 10.722656 -2.28125 9.296875 -2.53125 8.640625 -3.03125 C 7.992188 -3.539062 7.269531 -4.953125 6.46875 -7.265625 C 6.375 -7.460938 6.226562 -7.691406 6.03125 -7.953125 C 5.84375 -8.222656 5.628906 -8.539062 5.390625 -8.90625 C 5.097656 -9.457031 4.84375 -9.867188 4.625 -10.140625 C 4.414062 -10.421875 4.238281 -10.5625 4.09375 -10.5625 C 3.707031 -10.5625 3.1875 -10.300781 2.53125 -9.78125 C 1.882812 -9.269531 1.085938 -8.492188 0.140625 -7.453125 C 0.0234375 -7.765625 -0.117188 -8.132812 -0.296875 -8.5625 C -0.484375 -9 -0.675781 -9.507812 -0.875 -10.09375 C -0.914062 -10.238281 -0.972656 -10.367188 -1.046875 -10.484375 C -1.117188 -10.609375 -1.203125 -10.707031 -1.296875 -10.78125 Z M 13.8125 -39.328125 C 14.414062 -39.328125 14.859375 -39.207031 15.140625 -38.96875 C 15.421875 -38.726562 15.5625 -38.378906 15.5625 -37.921875 C 15.414062 -37.242188 15.289062 -36.675781 15.1875 -36.21875 C 14.945312 -35.34375 14.738281 -34.628906 14.5625 -34.078125 C 14.382812 -33.523438 14.242188 -33.128906 14.140625 -32.890625 C 13.921875 -32.359375 13.625 -31.890625 13.25 -31.484375 C 12.882812 -31.085938 12.4375 -30.734375 11.90625 -30.421875 C 11.351562 -30.035156 10.890625 -29.765625 10.515625 -29.609375 C 10.140625 -29.453125 9.878906 -29.382812 9.734375 -29.40625 C 9.316406 -29.457031 8.921875 -29.5 8.546875 -29.53125 C 8.179688 -29.570312 7.816406 -29.59375 7.453125 -29.59375 C 7.140625 -29.757812 6.890625 -30.082031 6.703125 -30.5625 C 6.523438 -31.050781 6.4375 -31.707031 6.4375 -32.53125 C 6.4375 -33.25 6.875 -34.15625 7.75 -35.25 C 8.632812 -36.351562 9.414062 -36.941406 10.09375 -37.015625 C 10.5 -37.515625 10.984375 -38.09375 11.546875 -38.75 C 11.785156 -38.914062 12.097656 -39.050781 12.484375 -39.15625 C 12.867188 -39.269531 13.3125 -39.328125 13.8125 -39.328125 Z M 13.8125 -39.328125 "/></g></g><g transform="translate(139.796561, 56.133484)"><g><path d="M -1.296875 -10.78125 L -1.15625 -11.078125 C -1.007812 -11.265625 -0.820312 -11.503906 -0.59375 -11.796875 C -0.363281 -12.085938 -0.09375 -12.425781 0.21875 -12.8125 C 1.925781 -14.394531 3.59375 -16.289062 5.21875 -18.5 C 6.851562 -20.707031 8.46875 -23.25 10.0625 -26.125 C 10.25 -26.382812 10.460938 -26.734375 10.703125 -27.171875 C 10.953125 -27.609375 11.21875 -28.148438 11.5 -28.796875 C 11.5 -28.941406 11.460938 -29.050781 11.390625 -29.125 C 11.316406 -29.195312 11.195312 -29.234375 11.03125 -29.234375 C 10.882812 -29.234375 10.648438 -29.191406 10.328125 -29.109375 C 10.003906 -29.023438 9.757812 -28.984375 9.59375 -28.984375 L 5.0625 -28.984375 C 4.875 -28.984375 4.554688 -28.992188 4.109375 -29.015625 C 3.660156 -29.035156 3.335938 -29.046875 3.140625 -29.046875 C 2.898438 -29.171875 2.675781 -29.273438 2.46875 -29.359375 C 2.269531 -29.441406 2.070312 -29.53125 1.875 -29.625 C 1.59375 -29.726562 1.375 -29.859375 1.21875 -30.015625 C 1.0625 -30.171875 0.984375 -30.359375 0.984375 -30.578125 C 0.984375 -32.117188 1.144531 -33.296875 1.46875 -34.109375 C 1.789062 -34.929688 2.289062 -35.34375 2.96875 -35.34375 C 3.644531 -35.34375 4.273438 -35.3125 4.859375 -35.25 C 5.453125 -35.195312 5.976562 -35.117188 6.4375 -35.015625 C 6.800781 -35.085938 7.140625 -35.160156 7.453125 -35.234375 C 8.097656 -35.234375 8.648438 -35.207031 9.109375 -35.15625 C 9.566406 -35.113281 9.921875 -35.054688 10.171875 -34.984375 C 10.484375 -35.054688 10.789062 -35.125 11.09375 -35.1875 C 11.394531 -35.25 11.722656 -35.3125 12.078125 -35.375 L 13.28125 -35.015625 C 14.125 -35.117188 15.019531 -36.300781 15.96875 -38.5625 C 16.925781 -40.832031 17.945312 -41.96875 19.03125 -41.96875 C 19.601562 -41.96875 20.046875 -41.785156 20.359375 -41.421875 C 20.679688 -41.054688 20.84375 -40.523438 20.84375 -39.828125 C 20.84375 -39.273438 20.675781 -38.546875 20.34375 -37.640625 C 20.019531 -36.734375 19.835938 -36.050781 19.796875 -35.59375 C 19.835938 -35.5 19.898438 -35.394531 19.984375 -35.28125 C 20.066406 -35.175781 20.195312 -35.050781 20.375 -34.90625 C 20.507812 -34.8125 20.609375 -34.648438 20.671875 -34.421875 C 20.734375 -34.191406 20.765625 -33.910156 20.765625 -33.578125 C 20.765625 -32.128906 20.695312 -31.007812 20.5625 -30.21875 C 20.4375 -29.4375 20.226562 -29.035156 19.9375 -29.015625 L 17.46875 -28.515625 C 17.425781 -28.265625 17.367188 -27.960938 17.296875 -27.609375 C 17.222656 -27.265625 17.125 -26.863281 17 -26.40625 C 16.59375 -25.195312 16.132812 -23.664062 15.625 -21.8125 C 15.125 -19.957031 14.554688 -17.765625 13.921875 -15.234375 C 13.535156 -13.203125 13.238281 -11.554688 13.03125 -10.296875 C 12.832031 -9.046875 12.734375 -8.207031 12.734375 -7.78125 C 12.734375 -7.394531 12.789062 -7.101562 12.90625 -6.90625 C 13.03125 -6.71875 13.210938 -6.625 13.453125 -6.625 C 13.597656 -6.625 14.125 -6.972656 15.03125 -7.671875 C 15.9375 -8.367188 17.195312 -9.40625 18.8125 -10.78125 L 20.21875 -7.453125 C 19.976562 -7.191406 19.640625 -6.878906 19.203125 -6.515625 C 18.773438 -6.148438 18.257812 -5.765625 17.65625 -5.359375 C 17.414062 -5.085938 17.113281 -4.789062 16.75 -4.46875 C 16.382812 -4.144531 15.988281 -3.765625 15.5625 -3.328125 C 15.125 -2.847656 14.691406 -2.363281 14.265625 -1.875 C 13.847656 -1.394531 13.421875 -0.925781 12.984375 -0.46875 C 12.410156 0.15625 11.84375 0.601562 11.28125 0.875 C 10.726562 1.15625 10.210938 1.296875 9.734375 1.296875 C 8.671875 1.296875 7.878906 0.984375 7.359375 0.359375 C 6.835938 -0.265625 6.578125 -1.21875 6.578125 -2.5 C 6.578125 -3.894531 6.625 -5.101562 6.71875 -6.125 C 6.820312 -7.15625 6.984375 -7.984375 7.203125 -8.609375 C 7.296875 -8.804688 7.367188 -8.972656 7.421875 -9.109375 C 7.421875 -9.359375 7.457031 -9.6875 7.53125 -10.09375 C 7.601562 -10.5 7.6875 -10.984375 7.78125 -11.546875 C 7.925781 -12.484375 8.082031 -13.421875 8.25 -14.359375 C 8.507812 -14.941406 8.785156 -15.554688 9.078125 -16.203125 C 9.078125 -16.328125 8.984375 -16.4375 8.796875 -16.53125 L 8.421875 -16.3125 C 8.066406 -15.738281 7.597656 -15.128906 7.015625 -14.484375 C 6.441406 -13.847656 5.753906 -13.179688 4.953125 -12.484375 C 3.722656 -11.296875 2.46875 -10.101562 1.1875 -8.90625 C 1.113281 -8.78125 0.976562 -8.597656 0.78125 -8.359375 C 0.59375 -8.117188 0.378906 -7.816406 0.140625 -7.453125 C 0.0234375 -7.742188 -0.117188 -8.109375 -0.296875 -8.546875 C -0.484375 -8.992188 -0.675781 -9.507812 -0.875 -10.09375 C -0.914062 -10.238281 -0.972656 -10.367188 -1.046875 -10.484375 C -1.117188 -10.609375 -1.203125 -10.707031 -1.296875 -10.78125 Z M -1.296875 -10.78125 "/></g></g><g transform="translate(159.839741, 56.133484)"><g><path d="M -1.296875 -10.78125 C -0.742188 -11.363281 0.101562 -12.0625 1.25 -12.875 C 2.394531 -13.695312 3.242188 -14.375 3.796875 -14.90625 C 4.160156 -15.34375 4.628906 -15.867188 5.203125 -16.484375 C 5.785156 -17.097656 6.472656 -17.828125 7.265625 -18.671875 C 7.753906 -19.097656 8.226562 -19.429688 8.6875 -19.671875 C 9.144531 -19.921875 9.601562 -20.046875 10.0625 -20.046875 C 10.632812 -20.046875 11.082031 -19.898438 11.40625 -19.609375 C 11.738281 -19.316406 11.90625 -18.859375 11.90625 -18.234375 C 11.90625 -17.296875 11.539062 -15.773438 10.8125 -13.671875 C 10.09375 -11.578125 9.734375 -9.988281 9.734375 -8.90625 C 9.734375 -8.65625 9.785156 -8.484375 9.890625 -8.390625 C 10.003906 -8.296875 10.132812 -8.25 10.28125 -8.25 L 10.453125 -8.28125 C 10.910156 -8.570312 11.445312 -8.941406 12.0625 -9.390625 C 12.675781 -9.835938 13.367188 -10.382812 14.140625 -11.03125 C 14.773438 -11.613281 15.554688 -12.375 16.484375 -13.3125 C 17.410156 -14.25 18.5 -15.332031 19.75 -16.5625 C 20.238281 -16.957031 20.789062 -17.453125 21.40625 -18.046875 C 22.019531 -18.648438 22.710938 -19.375 23.484375 -20.21875 C 23.796875 -20.65625 24.234375 -20.992188 24.796875 -21.234375 C 25.367188 -21.472656 26.0625 -21.59375 26.875 -21.59375 C 27.4375 -21.59375 27.851562 -21.488281 28.125 -21.28125 C 28.40625 -21.082031 28.546875 -20.78125 28.546875 -20.375 C 28.546875 -20.195312 28.523438 -20.03125 28.484375 -19.875 C 28.453125 -19.71875 28.425781 -19.566406 28.40625 -19.421875 C 28.226562 -18.703125 27.972656 -17.816406 27.640625 -16.765625 C 27.304688 -15.710938 26.894531 -14.476562 26.40625 -13.0625 C 26 -12.164062 25.570312 -11.097656 25.125 -9.859375 C 24.675781 -8.617188 24.203125 -7.25 23.703125 -5.75 L 23.953125 -5.421875 C 24.453125 -5.660156 25.203125 -6.234375 26.203125 -7.140625 C 27.210938 -8.046875 28.472656 -9.257812 29.984375 -10.78125 L 31.4375 -7.453125 C 31.25 -7.253906 31.015625 -7.015625 30.734375 -6.734375 C 30.453125 -6.460938 30.082031 -6.171875 29.625 -5.859375 C 27.050781 -4.023438 24.835938 -2.207031 22.984375 -0.40625 C 21.140625 1.382812 19.675781 3.160156 18.59375 4.921875 C 16.976562 7.578125 15.632812 9.734375 14.5625 11.390625 C 13.488281 13.054688 12.710938 14.226562 12.234375 14.90625 C 10.566406 17.101562 8.984375 18.726562 7.484375 19.78125 C 5.992188 20.84375 4.535156 21.375 3.109375 21.375 C 2.578125 21.375 2.191406 21.265625 1.953125 21.046875 C 1.710938 20.835938 1.59375 20.503906 1.59375 20.046875 C 1.59375 19.804688 1.648438 19.503906 1.765625 19.140625 C 1.890625 18.773438 2.109375 18.390625 2.421875 17.984375 C 2.878906 17.328125 3.300781 16.648438 3.6875 15.953125 L 4.78125 15.015625 C 4.875 14.703125 4.921875 14.484375 4.921875 14.359375 C 5.015625 14.242188 5.148438 14.097656 5.328125 13.921875 C 5.515625 13.753906 5.726562 13.5625 5.96875 13.34375 C 6.132812 12.914062 6.582031 12.203125 7.3125 11.203125 C 8.050781 10.203125 9.085938 8.914062 10.421875 7.34375 C 11.410156 6.1875 12.3125 5.15625 13.125 4.25 C 13.945312 3.34375 14.648438 2.578125 15.234375 1.953125 C 15.328125 1.765625 15.425781 1.535156 15.53125 1.265625 C 15.644531 1.003906 15.738281 0.738281 15.8125 0.46875 C 16.125 -0.15625 16.46875 -0.910156 16.84375 -1.796875 C 17.21875 -2.691406 17.671875 -3.742188 18.203125 -4.953125 C 18.441406 -5.648438 18.644531 -6.453125 18.8125 -7.359375 C 18.976562 -8.265625 19.132812 -9.25 19.28125 -10.3125 C 19.226562 -10.40625 19.195312 -10.53125 19.1875 -10.6875 C 19.175781 -10.84375 19.125 -11.066406 19.03125 -11.359375 C 18.59375 -11.140625 18.113281 -10.8125 17.59375 -10.375 C 17.082031 -9.945312 16.523438 -9.441406 15.921875 -8.859375 C 15.117188 -7.828125 14.304688 -6.96875 13.484375 -6.28125 C 12.671875 -5.59375 11.867188 -5.066406 11.078125 -4.703125 C 10.546875 -3.660156 9.863281 -2.894531 9.03125 -2.40625 C 8.195312 -1.914062 7.238281 -1.671875 6.15625 -1.671875 C 5.351562 -1.671875 4.742188 -1.851562 4.328125 -2.21875 C 3.921875 -2.59375 3.71875 -3.164062 3.71875 -3.9375 C 3.71875 -4.082031 3.734375 -4.265625 3.765625 -4.484375 C 3.804688 -4.703125 3.863281 -4.957031 3.9375 -5.25 C 3.84375 -5.488281 3.722656 -5.828125 3.578125 -6.265625 C 3.671875 -6.671875 3.753906 -7.128906 3.828125 -7.640625 C 3.828125 -8.359375 3.773438 -8.894531 3.671875 -9.25 C 3.566406 -9.613281 3.390625 -9.796875 3.140625 -9.796875 L 3 -9.734375 C 2.738281 -9.535156 2.363281 -9.242188 1.875 -8.859375 C 1.394531 -8.472656 0.816406 -8.003906 0.140625 -7.453125 C 0.0234375 -7.765625 -0.117188 -8.132812 -0.296875 -8.5625 C -0.484375 -9 -0.675781 -9.507812 -0.875 -10.09375 C -0.914062 -10.238281 -0.972656 -10.367188 -1.046875 -10.484375 C -1.117188 -10.609375 -1.203125 -10.707031 -1.296875 -10.78125 Z M -1.296875 -10.78125 "/></g></g></g></g></g></svg>